<?xml version="1.0" encoding="utf-8"?>
<!-- Generator: Adobe Illustrator 16.0.0, SVG Export Plug-In . SVG Version: 6.00 Build 0)  -->
<!DOCTYPE svg PUBLIC "-//W3C//DTD SVG 1.1//EN" "http://www.w3.org/Graphics/SVG/1.1/DTD/svg11.dtd">
<svg version="1.1" id="Layer_1" xmlns="http://www.w3.org/2000/svg" xmlns:xlink="http://www.w3.org/1999/xlink" x="0px" y="0px"
	 width="268.688px" height="180.598px" viewBox="0 0 268.688 180.598" enable-background="new 0 0 268.688 180.598"
	 xml:space="preserve">
<g>
	<g>
		<path fill="#808285" d="M145.607,29.93c23.472-1.148,46.944-2.296,70.417-3.444c-1.126-1.45-2.252-2.9-3.377-4.351
			c-33,16.259-66,32.519-99,48.778c-8.126,4.003,2.993,4.492,6.371,4.116c11.231-1.25,22.461-2.5,33.692-3.749
			c4.095-0.456,11.94-1.288,14.724-4.936c2.301-3.016-8.617-2.254-9.282-2.18c-11.231,1.25-22.461,2.5-33.692,3.749
			c2.124,1.372,4.247,2.744,6.371,4.116c33-16.259,66-32.519,99-48.778c6.191-3.05,0.819-4.556-3.377-4.351
			c-23.472,1.148-46.944,2.296-70.417,3.444c-5.399,0.264-11.99,1.146-16.614,4.21C135.914,29.542,143.983,30.009,145.607,29.93
			L145.607,29.93z"/>
	</g>
</g>
<g>
	<g>
		<path fill="#808285" d="M182.465,75.184c-0.38-0.276,0.584,0.51,0.296,0.258c-0.195-0.17-0.372-0.361-0.537-0.561
			c-0.219-0.263-0.395-0.556-0.541-0.865c0.262,0.556-0.037-0.407-0.031-0.729c0.012-0.596-0.088,0.114,0.034-0.245
			c0.083-0.246,0.22-0.471,0.357-0.69c0.36-0.576-0.019-0.046,0.315-0.371c0.287-0.279,0.613-0.515,0.937-0.748
			c-0.401,0.288,0.74-0.406,0.873-0.475c0.353-0.185,0.957-0.465,1.202-0.562c1.577-0.624,3.216-1.086,4.853-1.521
			c1.228-0.326,3.48-1.824,1.576-2.971c-1.989-1.198-4.772-0.79-6.877-0.23c-3.208,0.852-6.531,1.868-9.363,3.647
			c-1.712,1.076-3.379,2.364-3.808,4.438c-0.365,1.764,0.917,3.388,2.262,4.365c1.743,1.266,4.998,0.841,6.877,0.23
			C182.228,77.72,184.243,76.476,182.465,75.184L182.465,75.184z"/>
	</g>
</g>
<g>
	<g>
		<path fill="#333333" d="M255.992,69.831c-50.947-3.76-103.252-5.143-153.659,4.59c-16.482,3.183-32.773,7.905-47.837,15.403
			c-14.203,7.07-24.229,17.012-33.97,29.403c-9.234,11.748-23.463,29.1-14.579,44.68c4.528,7.94,13.82,13.642,22.91,14.113
			c13.073,0.677,23.898-8.623,32.712-17.195c19.589-19.052,35.396-42.526,50.276-65.298c11.343-17.359,22.16-35.517,29.601-54.941
			c3.207-8.37,7.325-19.622,4.579-28.687c-2.931-9.672-15.88-12.67-24.407-9.482C108.483,7.329,97.291,18.47,87.271,27.872
			C72.285,41.935,58.125,57.039,44.744,72.639c-3.303,3.851,10.2,9.871,12.939,6.678c16.394-19.114,33.861-37.755,52.97-54.175
			c5.398-4.639,11.029-9.102,17.157-12.745c2.028-1.206,4.112-2.25,6.361-2.97c1.098-0.351,1.856-0.444,1.973-0.453
			c1.455-0.114-1.324-0.173,0.049-0.014c-0.988-0.115-3.411-1.043-3.47-1.073c-2.236-1.152-0.092,0.186-1.758-1.198
			c0.284,0.235,0.918,0.975-0.135-0.253c0.371,0.432,0.658,0.929,0.921,1.431c-0.492-0.939,0.24,0.793,0.336,1.146
			c0.232,0.851,0.349,1.731,0.437,2.607c0.446,4.407-0.594,8.939-1.692,13.176c-4.333,16.724-13.048,32.436-21.717,47.23
			c-14.467,24.688-31.042,48.826-49.694,70.538c-8.851,10.303-20.821,24.777-35.033,27.525c-0.254,0.049-0.704,0.094-1.86,0.1
			c1.103-0.005-0.945-0.237,0.159,0.016c-0.17-0.039,1.015,0.423,0.907,0.371c-1.281-0.618,1.046,0.841-0.901-0.62
			c1.614,1.21-0.282-0.314-0.65-0.678c-0.257-0.253-0.501-0.52-0.745-0.786c-0.847-0.923,0.729,0.882-0.064-0.085
			c-1.553-1.895-2.777-3.921-3.474-6.277c-2.039-6.891,1.44-14.212,4.688-20.124c5.707-10.385,13.576-20.121,21.619-28.765
			c8.952-9.621,20.906-16.195,32.986-21.025c39.457-15.776,84.479-17.373,126.399-17.105c19.256,0.123,38.497,1.071,57.698,2.488
			c1.825,0.135,5.968-0.188,4.041-3.083C263.389,71.806,259.12,70.062,255.992,69.831L255.992,69.831z"/>
	</g>
</g>
<g>
	<g>
		<path fill="#808285" d="M162.47,66.89c4.373,2.577,7.996,6.847,11.209,10.667c0.953,1.134,6.413-0.863,5.452-2.005
			c-3.213-3.82-6.835-8.09-11.209-10.667c-1.028-0.605-2.731-0.083-3.743,0.288C163.939,65.261,161.519,66.329,162.47,66.89
			L162.47,66.89z"/>
	</g>
</g>
<g>
	<g>
		<path fill="#808285" d="M186.838,68.343c5.217,9.243,6.978,20.831,6.294,31.253c-0.201,3.064,5.702,2.263,5.878-0.418
			c0.74-11.292-1.247-23.446-6.874-33.413C190.828,63.447,185.316,65.648,186.838,68.343L186.838,68.343z"/>
	</g>
</g>
</svg>
