<?xml version="1.0" encoding="utf-8"?>
<!-- Generator: Adobe Illustrator 16.0.0, SVG Export Plug-In . SVG Version: 6.00 Build 0)  -->
<!DOCTYPE svg PUBLIC "-//W3C//DTD SVG 1.1//EN" "http://www.w3.org/Graphics/SVG/1.1/DTD/svg11.dtd">
<svg version="1.1" id="Layer_1" xmlns="http://www.w3.org/2000/svg" xmlns:xlink="http://www.w3.org/1999/xlink" x="0px" y="0px"
	 width="223.234px" height="215.663px" viewBox="0 0 223.234 215.663" enable-background="new 0 0 223.234 215.663"
	 xml:space="preserve">
<g>
	<g>
		<path fill="#999999" d="M149.411,31.556c14.611,0,29.223,0,43.834,0c-0.691-0.45-1.383-0.9-2.074-1.35
			c-22.05,14.667-44.1,29.333-66.15,44c-1.823,1.213,1.453,1.347,2.074,1.35c11.287,0.055,22.573,0.11,33.86,0.166
			c2.241,0.011,10.905-3.003,4.571-3.034c-11.287-0.055-22.573-0.11-33.86-0.166c0.691,0.45,1.383,0.9,2.074,1.35
			c22.05-14.667,44.1-29.333,66.15-44c1.821-1.211-1.45-1.35-2.074-1.35c-14.611,0-29.223,0-43.834,0
			C151.745,28.522,143.078,31.556,149.411,31.556L149.411,31.556z"/>
	</g>
</g>
<g>
	<g>
		<path fill="#999999" d="M169.109,74.888c1.076,0,4.877-2.107,3.819-2.107C171.853,72.78,168.052,74.888,169.109,74.888
			L169.109,74.888z"/>
	</g>
</g>
<g>
	<g>
		<path fill="#999999" d="M181.549,75.637c2.698,0,0.74-4.435-1.256-4.435C177.596,71.203,179.554,75.637,181.549,75.637
			L181.549,75.637z"/>
	</g>
</g>
<g>
	<g>
		<path fill="#999999" d="M191.407,74.626c2.698,0,0.74-4.435-1.256-4.435C187.453,70.192,189.411,74.626,191.407,74.626
			L191.407,74.626z"/>
	</g>
</g>
<g>
	<g>
		<path fill="#999999" d="M202.055,74.255c2.698,0,0.74-4.435-1.256-4.435C198.102,69.821,200.06,74.255,202.055,74.255
			L202.055,74.255z"/>
	</g>
</g>
<g>
	<g>
		<path fill="#939598" d="M212.566,74.255c2.697,0,0.739-4.435-1.256-4.435C208.613,69.821,210.571,74.255,212.566,74.255
			L212.566,74.255z"/>
	</g>
</g>
<g>
	<g>
		<path fill="#999999" d="M209.45,73.65c0.823,9.765,1.646,19.531,2.47,29.296c0.1,1.182,5.079,0.727,4.977-0.482
			c-0.823-9.765-1.646-19.531-2.47-29.296C214.327,71.986,209.348,72.441,209.45,73.65L209.45,73.65z"/>
	</g>
</g>
<g>
	<g>
		<path fill="#333333" d="M216.59,72.246c-45.075-1.038-92.266,3.857-132.226,26.316c-25.55,14.36-46.354,36.215-62.534,60.432
			c-6.607,9.888-12.725,20.526-16.426,31.881c-1.793,5.502-3.912,13.699,0.973,18.347c4.868,4.632,13.365-2.795,16.986-5.718
			c14.459-11.673,26.403-26.783,37.873-41.262c18.482-23.331,35.779-47.731,51.18-73.209c10.444-17.279,20.292-35.32,27.006-54.418
			c2.828-8.044,6.968-19.329,3.147-27.736c-3.911-8.608-13.456-3.709-19.377-0.098C106.624,16.886,92.58,31.822,79.202,45.691
			C70.6,54.609,62.182,63.74,54.114,73.146c-0.902,1.051,1.571,5.286,2.584,4.104c16.538-19.282,34.159-38.121,53.506-54.605
			c5.351-4.559,10.939-8.947,17.035-12.473c3.526-2.039,8.299-4.602,12.493-3.329c4.932,1.496-1.808,20.52-2.892,23.667
			c-6.59,19.126-16.629,37.134-27.005,54.418c-15.325,25.525-32.761,49.838-51.18,73.209
			c-11.597,14.715-23.776,30.012-38.541,41.723c-3.08,2.443-6.543,4.977-10.401,6.001c-0.9,0.239-2.04,0.367-2.933,0.009
			c-0.97-0.389-0.366,0.166-0.445-0.346c-1.235-7.987,4.119-17.659,7.535-24.47c6.435-12.833,14.739-24.751,23.815-35.841
			c19.891-24.304,44.681-42.838,74.202-53.849c33.768-12.596,70.587-15.374,106.336-14.55
			C219.712,76.849,218.015,72.279,216.59,72.246L216.59,72.246z"/>
	</g>
</g>
<g>
	<g>
		<path fill="#999999" d="M167.957,78.541c-0.167-0.305-0.072-0.117-0.163-0.377c-0.175-0.5-0.253-1.025-0.254-1.554
			c-0.001-1.659,1.369-2.477,2.796-2.875c0.607-0.169,1.745-0.909,0.788-1.485c-0.986-0.594-2.395-0.407-3.439-0.115
			c-2.277,0.636-4.617,1.835-5.086,4.345c-0.184,0.982,0.118,2.109,0.591,2.974C163.881,80.717,168.728,79.952,167.957,78.541
			L167.957,78.541z"/>
	</g>
</g>
<g>
	<g>
		<path fill="#999999" d="M177.936,77.791c-0.167-0.305-0.072-0.117-0.163-0.377c-0.175-0.5-0.253-1.025-0.254-1.554
			c-0.001-1.659,1.369-2.477,2.796-2.875c0.607-0.169,1.745-0.909,0.788-1.485c-0.986-0.594-2.395-0.407-3.439-0.115
			c-2.277,0.636-4.617,1.835-5.086,4.345c-0.184,0.982,0.118,2.109,0.591,2.974C173.859,79.967,178.706,79.202,177.936,77.791
			L177.936,77.791z"/>
	</g>
</g>
<g>
	<g>
		<path fill="#999999" d="M187.793,76.78c-0.167-0.305-0.072-0.117-0.163-0.377c-0.175-0.5-0.253-1.025-0.254-1.554
			c-0.001-1.659,1.369-2.477,2.796-2.875c0.607-0.169,1.745-0.909,0.788-1.485c-0.986-0.594-2.395-0.407-3.439-0.115
			c-2.277,0.636-4.617,1.835-5.086,4.345c-0.184,0.982,0.118,2.109,0.591,2.974C183.717,78.956,188.563,78.191,187.793,76.78
			L187.793,76.78z"/>
	</g>
</g>
<g>
	<g>
		<path fill="#999999" d="M198.441,76.409c-0.167-0.305-0.072-0.117-0.163-0.377c-0.175-0.5-0.253-1.025-0.254-1.554
			c-0.001-1.659,1.369-2.477,2.796-2.875c0.607-0.169,1.745-0.909,0.788-1.485c-0.986-0.594-2.395-0.407-3.439-0.115
			c-2.277,0.636-4.617,1.835-5.086,4.345c-0.184,0.982,0.118,2.109,0.591,2.974C194.365,78.585,199.212,77.82,198.441,76.409
			L198.441,76.409z"/>
	</g>
</g>
<g>
	<g>
		<path fill="#999999" d="M208.952,76.409c-0.167-0.305-0.072-0.117-0.163-0.377c-0.175-0.5-0.253-1.025-0.254-1.554
			c-0.001-1.659,1.369-2.477,2.796-2.875c0.607-0.169,1.745-0.909,0.788-1.485c-0.986-0.594-2.395-0.407-3.439-0.115
			c-2.277,0.636-4.617,1.835-5.086,4.345c-0.184,0.982,0.118,2.109,0.591,2.974C204.876,78.585,209.723,77.82,208.952,76.409
			L208.952,76.409z"/>
	</g>
</g>
</svg>
